<?xml version="1.0" encoding="iso-8859-1"?>
<!-- Generator: Adobe Illustrator 19.0.0, SVG Export Plug-In . SVG Version: 6.00 Build 0)  -->
<svg version="1.1" id="Layer_1" xmlns="http://www.w3.org/2000/svg" xmlns:xlink="http://www.w3.org/1999/xlink" x="0px" y="0px"
	 viewBox="0 0 318.319 318.319" style="enable-background:new 0 0 318.319 318.319;" xml:space="preserve">
<g>
	<path style="fill:#FFC843;" d="M203.962,249.168c0-48.734,61.31-62.097,61.31-143.056C265.272,47.507,217.766,0,159.16,0
		C100.552,0,53.047,47.507,53.047,106.112c0,80.959,61.31,94.322,61.31,143.056H203.962z"/>
	<path style="fill:#FF6D68;" d="M176.138,253.353c-2.311,0-4.185-1.874-4.185-4.184c0-31.724,11.316-48.158,22.259-64.052
		c9.104-13.222,17.762-25.798,19.679-47.205l-11.816,9.565c-1.699,1.376-4.171,1.211-5.673-0.378l-16.145-17.077l-15.064,16.979
		c-0.794,0.895-1.935,1.407-3.13,1.407c-1.196,0-2.336-0.513-3.13-1.407l-15.064-16.979l-16.145,17.077
		c-1.501,1.589-3.973,1.753-5.672,0.378l-11.817-9.565c1.917,21.407,10.575,33.982,19.679,47.205
		c10.943,15.894,22.259,32.328,22.259,64.052c0,2.311-1.873,4.184-4.184,4.184s-4.184-1.874-4.184-4.184
		c0-29.122-10.096-43.784-20.783-59.307c-10.594-15.384-21.547-31.292-21.547-61.036c0-1.612,0.927-3.082,2.382-3.776
		c1.459-0.694,3.181-0.489,4.435,0.524l16.014,12.961l16.622-17.581c0.806-0.853,1.948-1.339,3.106-1.309
		c1.172,0.018,2.285,0.529,3.063,1.406l14.966,16.869l14.966-16.869c0.778-0.877,1.891-1.388,3.063-1.406
		c1.225-0.019,2.3,0.457,3.105,1.309l16.622,17.581l16.014-12.961c1.255-1.014,2.978-1.217,4.435-0.524
		c1.455,0.694,2.382,2.164,2.382,3.776c0,29.744-10.953,45.652-21.546,61.036c-10.688,15.523-20.783,30.185-20.783,59.307
		C180.322,251.479,178.449,253.353,176.138,253.353z"/>
	<path style="fill:#5C6670;" d="M108.498,267.656c0,27.981,22.681,50.663,50.662,50.663s50.662-22.682,50.662-50.663H108.498z"/>
	<path style="fill:#333E48;" d="M218.973,263.315c0-7.782-6.365-14.147-14.147-14.147h-91.335c-7.779,0-14.147,6.365-14.147,14.147
		v19.65c0,7.783,6.368,14.149,14.147,14.149h91.335c7.782,0,14.147-6.366,14.147-14.149V263.315z"/>
</g>
<g>
</g>
<g>
</g>
<g>
</g>
<g>
</g>
<g>
</g>
<g>
</g>
<g>
</g>
<g>
</g>
<g>
</g>
<g>
</g>
<g>
</g>
<g>
</g>
<g>
</g>
<g>
</g>
<g>
</g>
</svg>
