<?xml version="1.0" encoding="iso-8859-1"?>
<!-- Generator: Adobe Illustrator 18.0.0, SVG Export Plug-In . SVG Version: 6.00 Build 0)  -->
<!DOCTYPE svg PUBLIC "-//W3C//DTD SVG 1.1//EN" "http://www.w3.org/Graphics/SVG/1.1/DTD/svg11.dtd">
<svg version="1.1" id="Capa_1" xmlns="http://www.w3.org/2000/svg" xmlns:xlink="http://www.w3.org/1999/xlink" x="0px" y="0px"
	 viewBox="0 0 495.554 495.554" style="enable-background:new 0 0 495.554 495.554;" xml:space="preserve">
<g id="XMLID_115_">
	<g id="XMLID_116_">
		<path id="XMLID_117_" d="M353.732,451.163c3.388,10.912-2.324,22.536-13.024,26.545c-35.256,13.208-68.455,17.846-111.453,17.846
			c-118.188,0-222.136-84.711-222.136-224.283C7.118,126.042,112.492,0,273.4,0c125.316,0,215.036,86.156,215.036,205.784
			c0,103.949-58.388,169.434-135.282,169.434c-33.456,0-57.69-17.076-61.225-54.813h-1.423
			c-22.095,36.324-54.124,54.813-91.861,54.813c-46.298,0-79.753-34.171-79.753-92.557c0-86.842,64.092-165.898,166.625-165.898
			c17.074,0,35.438,2.328,51.491,6.064c19.1,4.444,31.434,22.886,28.295,42.243l-16.411,101.212
			c-7.14,42.037-2.152,61.253,17.79,61.949c30.619,0.728,69.051-38.442,69.051-120.326c0-92.557-59.801-164.484-170.16-164.484
			c-108.937,0-204.36,85.459-204.36,221.447c0,118.902,76.209,186.558,182.278,186.558c28.226,0,57.728-4.744,82.85-13.864
			c5.426-1.969,11.42-1.629,16.591,0.935c5.171,2.565,9.08,7.133,10.792,12.646L353.732,451.163z M296.189,175.873
			c-5.686-1.423-12.815-2.847-22.064-2.847c-47.017,0-84.035,46.27-84.035,101.11c0,27.053,12.117,44.117,35.594,44.117
			c26.346,0,54.125-33.443,60.527-74.754L296.189,175.873z"/>
	</g>
</g>
<g>
</g>
<g>
</g>
<g>
</g>
<g>
</g>
<g>
</g>
<g>
</g>
<g>
</g>
<g>
</g>
<g>
</g>
<g>
</g>
<g>
</g>
<g>
</g>
<g>
</g>
<g>
</g>
<g>
</g>
</svg>
