<svg xmlns="http://www.w3.org/2000/svg" viewBox="0 0 318.319 318.319"><path d="M203.962 249.168c0-48.734 61.31-62.097 61.31-143.056C265.272 47.507 217.766 0 159.16 0 100.552 0 53.047 47.507 53.047 106.112c0 80.959 61.31 94.322 61.31 143.056h89.605z" fill="#ffc843"/><path d="M176.138 253.353a4.185 4.185 0 0 1-4.185-4.184c0-31.724 11.316-48.158 22.259-64.052 9.104-13.222 17.762-25.798 19.679-47.205l-11.816 9.565a4.183 4.183 0 0 1-5.673-.378l-16.145-17.077-15.064 16.979a4.187 4.187 0 0 1-6.26 0l-15.064-16.979-16.145 17.077a4.183 4.183 0 0 1-5.672.378l-11.817-9.565c1.917 21.407 10.575 33.982 19.679 47.205 10.943 15.894 22.259 32.328 22.259 64.052a4.184 4.184 0 1 1-8.368 0c0-29.122-10.096-43.784-20.783-59.307-10.594-15.384-21.547-31.292-21.547-61.036a4.185 4.185 0 0 1 6.817-3.252l16.014 12.961 16.622-17.581a4.163 4.163 0 0 1 3.106-1.309 4.184 4.184 0 0 1 3.063 1.406l14.966 16.869 14.966-16.869a4.184 4.184 0 0 1 3.063-1.406 4.1 4.1 0 0 1 3.105 1.309l16.622 17.581 16.014-12.961a4.185 4.185 0 1 1 6.817 3.252c0 29.744-10.953 45.652-21.546 61.036-10.688 15.523-20.783 30.185-20.783 59.307a4.183 4.183 0 0 1-4.183 4.184z" fill="#ff6d68"/><path d="M108.498 267.656c0 27.981 22.681 50.663 50.662 50.663s50.662-22.682 50.662-50.663H108.498z" fill="#5c6670"/><path d="M218.973 263.315c0-7.782-6.365-14.147-14.147-14.147h-91.335c-7.779 0-14.147 6.365-14.147 14.147v19.65c0 7.783 6.368 14.149 14.147 14.149h91.335c7.782 0 14.147-6.366 14.147-14.149v-19.65z" fill="#333e48"/></svg>